<?xml version="1.0" encoding="UTF-8" standalone="no"?>
<!DOCTYPE svg PUBLIC "-//W3C//DTD SVG 1.1//EN"
 "http://www.w3.org/Graphics/SVG/1.1/DTD/svg11.dtd">
<!-- Generated by graphviz version 2.43.0 (0)
 -->
<!-- Title: %3 Pages: 1 -->
<svg width="341pt" height="123pt"
 viewBox="0.00 0.00 340.50 122.81" xmlns="http://www.w3.org/2000/svg" xmlns:xlink="http://www.w3.org/1999/xlink">
<g id="graph0" class="graph" transform="scale(1 1) rotate(0) translate(4 118.81)">
<title>%3</title>
<polygon fill="white" stroke="transparent" points="-4,4 -4,-118.81 336.5,-118.81 336.5,4 -4,4"/>
<!-- Beypazari -->
<g id="node1" class="node">
<title>Beypazari</title>
<polygon fill="lightgray" stroke="black" points="52,-114.81 0,-114.81 0,-96.81 52,-96.81 52,-114.81"/>
<text text-anchor="middle" x="26" y="-103.61" font-family="Times,serif" font-size="9.00">Beypazari</text>
</g>
<!-- Ankara -->
<g id="node6" class="node">
<title>Ankara</title>
<ellipse fill="lightblue" stroke="black" cx="163" cy="-30.41" rx="30.31" ry="30.31"/>
<text text-anchor="middle" x="163" y="-28.21" font-family="Times,serif" font-size="9.00">Ankara</text>
</g>
<!-- Beypazari&#45;&gt;Ankara -->
<g id="edge1" class="edge">
<title>Beypazari&#45;&gt;Ankara</title>
<path fill="none" stroke="green" stroke-width="0.12" d="M41.18,-96.68C61.84,-85.61 99.42,-65.47 127.4,-50.48"/>
<polygon fill="green" stroke="green" stroke-width="0.12" points="129.32,-53.42 136.48,-45.61 126.01,-47.25 129.32,-53.42"/>
</g>
<!-- Polatli -->
<g id="node2" class="node">
<title>Polatli</title>
<polygon fill="lightgray" stroke="black" points="109.5,-114.81 70.5,-114.81 70.5,-96.81 109.5,-96.81 109.5,-114.81"/>
<text text-anchor="middle" x="90" y="-103.61" font-family="Times,serif" font-size="9.00">Polatli</text>
</g>
<!-- Polatli&#45;&gt;Ankara -->
<g id="edge2" class="edge">
<title>Polatli&#45;&gt;Ankara</title>
<path fill="none" stroke="green" stroke-width="0.48" d="M98.09,-96.68C106.92,-87.79 121.57,-73.07 134.71,-59.85"/>
<polygon fill="green" stroke="green" stroke-width="0.48" points="137.24,-62.27 141.81,-52.71 132.28,-57.34 137.24,-62.27"/>
</g>
<!-- Kizilca Hamam -->
<g id="node3" class="node">
<title>Kizilca Hamam</title>
<polygon fill="lightgray" stroke="black" points="198.5,-114.81 127.5,-114.81 127.5,-96.81 198.5,-96.81 198.5,-114.81"/>
<text text-anchor="middle" x="163" y="-103.61" font-family="Times,serif" font-size="9.00">Kizilca Hamam</text>
</g>
<!-- Kizilca Hamam&#45;&gt;Ankara -->
<g id="edge3" class="edge">
<title>Kizilca Hamam&#45;&gt;Ankara</title>
<path fill="none" stroke="green" stroke-width="0.19" d="M163,-96.68C163,-90.25 163,-80.76 163,-71"/>
<polygon fill="green" stroke="green" stroke-width="0.19" points="166.5,-70.85 163,-60.85 159.5,-70.85 166.5,-70.85"/>
</g>
<!-- Esenboga -->
<g id="node4" class="node">
<title>Esenboga</title>
<polygon fill="lightgray" stroke="black" points="267.5,-114.81 216.5,-114.81 216.5,-96.81 267.5,-96.81 267.5,-114.81"/>
<text text-anchor="middle" x="242" y="-103.61" font-family="Times,serif" font-size="9.00">Esenboga</text>
</g>
<!-- Esenboga&#45;&gt;Ankara -->
<g id="edge4" class="edge">
<title>Esenboga&#45;&gt;Ankara</title>
<path fill="none" stroke="green" stroke-width="0.4" d="M233.24,-96.68C223.39,-87.52 206.86,-72.16 192.31,-58.64"/>
<polygon fill="green" stroke="green" stroke-width="0.4" points="194.64,-56.02 184.93,-51.78 189.87,-61.15 194.64,-56.02"/>
</g>
<!-- Nallihan -->
<g id="node5" class="node">
<title>Nallihan</title>
<polygon fill="lightgray" stroke="black" points="332.5,-114.81 285.5,-114.81 285.5,-96.81 332.5,-96.81 332.5,-114.81"/>
<text text-anchor="middle" x="309" y="-103.61" font-family="Times,serif" font-size="9.00">Nallihan</text>
</g>
<!-- Nallihan&#45;&gt;Ankara -->
<g id="edge5" class="edge">
<title>Nallihan&#45;&gt;Ankara</title>
<path fill="none" stroke="red" stroke-width="0.24" d="M292.82,-96.68C270.37,-85.39 229.18,-64.68 199.2,-49.61"/>
<polygon fill="red" stroke="red" stroke-width="0.24" points="200.41,-46.3 189.9,-44.93 197.26,-52.55 200.41,-46.3"/>
</g>
</g>
</svg>
