<?xml version="1.0" encoding="UTF-8" standalone="no"?>
<!DOCTYPE svg PUBLIC "-//W3C//DTD SVG 1.1//EN"
 "http://www.w3.org/Graphics/SVG/1.1/DTD/svg11.dtd">
<!-- Generated by graphviz version 2.43.0 (0)
 -->
<!-- Title: %3 Pages: 1 -->
<svg width="779pt" height="980pt"
 viewBox="0.00 0.00 779.23 980.17" xmlns="http://www.w3.org/2000/svg" xmlns:xlink="http://www.w3.org/1999/xlink">
<g id="graph0" class="graph" transform="scale(1 1) rotate(0) translate(4 976.17)">
<title>%3</title>
<polygon fill="white" stroke="transparent" points="-4,4 -4,-976.17 775.23,-976.17 775.23,4 -4,4"/>
<text text-anchor="middle" x="385.61" y="-953.77" font-family="Times,serif" font-size="18.00">Multilayered group method of data handling model</text>
<text text-anchor="middle" x="385.61" y="-933.77" font-family="Times,serif" font-size="18.00"> </text>
<!-- OUTPUT -->
<g id="node1" class="node">
<title>OUTPUT</title>
<ellipse fill="#ff9c34" stroke="#f89939" cx="347" cy="-18" rx="40.03" ry="18"/>
<text text-anchor="middle" x="347" y="-14.9" font-family="Times,serif" font-size="12.00" fill="white">OUTPUT</text>
</g>
<!-- F0
Beypazari -->
<g id="node2" class="node">
<title>F0
Beypazari</title>
<ellipse fill="#ff9c34" stroke="#f89939" cx="583" cy="-900.12" rx="45.92" ry="24.08"/>
<text text-anchor="middle" x="583" y="-903.52" font-family="Times,serif" font-size="12.00" fill="white">F0</text>
<text text-anchor="middle" x="583" y="-890.52" font-family="Times,serif" font-size="12.00" fill="white">Beypazari</text>
</g>
<!-- F1
Polatli -->
<g id="node3" class="node">
<title>F1
Polatli</title>
<ellipse fill="#ff9c34" stroke="#f89939" cx="486" cy="-900.12" rx="33.47" ry="24.08"/>
<text text-anchor="middle" x="486" y="-903.52" font-family="Times,serif" font-size="12.00" fill="white">F1</text>
<text text-anchor="middle" x="486" y="-890.52" font-family="Times,serif" font-size="12.00" fill="white">Polatli</text>
</g>
<!-- layer 0
model 0 -->
<g id="node7" class="node">
<title>layer 0
model 0</title>
<polygon fill="#cde8ef" stroke="#cde8ef" points="268,-834.04 214,-834.04 214,-798.04 268,-798.04 268,-834.04"/>
<text text-anchor="middle" x="241" y="-819.04" font-family="Times,serif" font-size="10.00">layer 0</text>
<text text-anchor="middle" x="241" y="-808.04" font-family="Times,serif" font-size="10.00">model 0</text>
</g>
<!-- F1
Polatli&#45;&gt;layer 0
model 0 -->
<g id="edge1" class="edge">
<title>F1
Polatli&#45;&gt;layer 0
model 0</title>
<path fill="none" stroke="#cde8ef" d="M454.71,-891.96C414.62,-882.33 343.34,-863.66 285,-840.08 282.46,-839.06 279.88,-837.93 277.3,-836.75"/>
<polygon fill="#3499cd" stroke="#cde8ef" points="278.59,-833.49 268.07,-832.28 275.54,-839.79 278.59,-833.49"/>
</g>
<!-- layer 0
model 1 -->
<g id="node8" class="node">
<title>layer 0
model 1</title>
<polygon fill="#cde8ef" stroke="#cde8ef" points="196,-834.04 142,-834.04 142,-798.04 196,-798.04 196,-834.04"/>
<text text-anchor="middle" x="169" y="-819.04" font-family="Times,serif" font-size="10.00">layer 0</text>
<text text-anchor="middle" x="169" y="-808.04" font-family="Times,serif" font-size="10.00">model 1</text>
</g>
<!-- F1
Polatli&#45;&gt;layer 0
model 1 -->
<g id="edge3" class="edge">
<title>F1
Polatli&#45;&gt;layer 0
model 1</title>
<path fill="none" stroke="#cde8ef" d="M452.84,-896.08C399.1,-890.28 290.36,-874.99 205,-840.08 204,-839.68 203.01,-839.24 202.01,-838.78"/>
<polygon fill="#3499cd" stroke="#cde8ef" points="203.63,-835.68 193.14,-834.15 200.38,-841.88 203.63,-835.68"/>
</g>
<!-- layer 5
model 0 -->
<g id="node16" class="node">
<title>layer 5
model 0</title>
<polygon fill="#cde8ef" stroke="#cde8ef" points="513,-468 459,-468 459,-432 513,-432 513,-468"/>
<text text-anchor="middle" x="486" y="-453" font-family="Times,serif" font-size="10.00">layer 5</text>
<text text-anchor="middle" x="486" y="-442" font-family="Times,serif" font-size="10.00">model 0</text>
</g>
<!-- F1
Polatli&#45;&gt;layer 5
model 0 -->
<g id="edge20" class="edge">
<title>F1
Polatli&#45;&gt;layer 5
model 0</title>
<path fill="none" stroke="#cde8ef" d="M494.81,-876.72C506.04,-846.11 524,-789.29 524,-739 524,-739 524,-739 524,-593 524,-551.63 508.77,-505.72 497.59,-477.61"/>
<polygon fill="#3499cd" stroke="#cde8ef" points="500.72,-476.02 493.69,-468.09 494.24,-478.67 500.72,-476.02"/>
</g>
<!-- layer 5
model 1 -->
<g id="node17" class="node">
<title>layer 5
model 1</title>
<polygon fill="#cde8ef" stroke="#cde8ef" points="382,-468 328,-468 328,-432 382,-432 382,-468"/>
<text text-anchor="middle" x="355" y="-453" font-family="Times,serif" font-size="10.00">layer 5</text>
<text text-anchor="middle" x="355" y="-442" font-family="Times,serif" font-size="10.00">model 1</text>
</g>
<!-- F1
Polatli&#45;&gt;layer 5
model 1 -->
<g id="edge22" class="edge">
<title>F1
Polatli&#45;&gt;layer 5
model 1</title>
<path fill="none" stroke="#cde8ef" d="M483.38,-875.92C475.72,-813.47 450.06,-637.57 391,-504 386.79,-494.49 380.86,-484.85 375.01,-476.45"/>
<polygon fill="#3499cd" stroke="#cde8ef" points="377.74,-474.25 369.04,-468.2 372.07,-478.36 377.74,-474.25"/>
</g>
<!-- layer 6
model 0 -->
<g id="node19" class="node">
<title>layer 6
model 0</title>
<polygon fill="#cde8ef" stroke="#cde8ef" points="513,-396 459,-396 459,-360 513,-360 513,-396"/>
<text text-anchor="middle" x="486" y="-381" font-family="Times,serif" font-size="10.00">layer 6</text>
<text text-anchor="middle" x="486" y="-370" font-family="Times,serif" font-size="10.00">model 0</text>
</g>
<!-- F1
Polatli&#45;&gt;layer 6
model 0 -->
<g id="edge26" class="edge">
<title>F1
Polatli&#45;&gt;layer 6
model 0</title>
<path fill="none" stroke="#cde8ef" d="M502.87,-878.84C525.26,-849.79 562,-793.77 562,-739 562,-739 562,-739 562,-521 562,-475.64 531.48,-430.75 509.12,-403.95"/>
<polygon fill="#3499cd" stroke="#cde8ef" points="511.66,-401.53 502.49,-396.23 506.36,-406.09 511.66,-401.53"/>
</g>
<!-- F2
KizilcaHamam -->
<g id="node4" class="node">
<title>F2
KizilcaHamam</title>
<ellipse fill="#ff9c34" stroke="#f89939" cx="709" cy="-900.12" rx="62.45" ry="24.08"/>
<text text-anchor="middle" x="709" y="-903.52" font-family="Times,serif" font-size="12.00" fill="white">F2</text>
<text text-anchor="middle" x="709" y="-890.52" font-family="Times,serif" font-size="12.00" fill="white">KizilcaHamam</text>
</g>
<!-- F3
Esenboga -->
<g id="node5" class="node">
<title>F3
Esenboga</title>
<ellipse fill="#ff9c34" stroke="#f89939" cx="95" cy="-900.12" rx="44.6" ry="24.08"/>
<text text-anchor="middle" x="95" y="-903.52" font-family="Times,serif" font-size="12.00" fill="white">F3</text>
<text text-anchor="middle" x="95" y="-890.52" font-family="Times,serif" font-size="12.00" fill="white">Esenboga</text>
</g>
<!-- F3
Esenboga&#45;&gt;layer 0
model 0 -->
<g id="edge2" class="edge">
<title>F3
Esenboga&#45;&gt;layer 0
model 0</title>
<path fill="none" stroke="#cde8ef" d="M126.65,-882.96C148.82,-871.43 179.02,-855.34 205,-840.08 205.4,-839.85 205.8,-839.61 206.21,-839.37"/>
<polygon fill="#3499cd" stroke="#cde8ef" points="208.08,-842.33 214.8,-834.14 204.44,-836.35 208.08,-842.33"/>
</g>
<!-- F3
Esenboga&#45;&gt;layer 0
model 1 -->
<g id="edge4" class="edge">
<title>F3
Esenboga&#45;&gt;layer 0
model 1</title>
<path fill="none" stroke="#cde8ef" d="M114.06,-877.99C124.01,-866.95 136.24,-853.38 146.64,-841.84"/>
<polygon fill="#3499cd" stroke="#cde8ef" points="149.4,-844.01 153.49,-834.24 144.2,-839.32 149.4,-844.01"/>
</g>
<!-- layer 2
model 0 -->
<g id="node11" class="node">
<title>layer 2
model 0</title>
<polygon fill="#cde8ef" stroke="#cde8ef" points="196,-684 142,-684 142,-648 196,-648 196,-684"/>
<text text-anchor="middle" x="169" y="-669" font-family="Times,serif" font-size="10.00">layer 2</text>
<text text-anchor="middle" x="169" y="-658" font-family="Times,serif" font-size="10.00">model 0</text>
</g>
<!-- F3
Esenboga&#45;&gt;layer 2
model 0 -->
<g id="edge10" class="edge">
<title>F3
Esenboga&#45;&gt;layer 2
model 0</title>
<path fill="none" stroke="#cde8ef" d="M89.68,-876.11C82.69,-840.45 74.12,-770.71 100,-720 107.25,-705.79 120.27,-694.28 133.05,-685.67"/>
<polygon fill="#3499cd" stroke="#cde8ef" points="135.19,-688.45 141.8,-680.17 131.47,-682.53 135.19,-688.45"/>
</g>
<!-- layer 2
model 1 -->
<g id="node12" class="node">
<title>layer 2
model 1</title>
<polygon fill="#cde8ef" stroke="#cde8ef" points="268,-684 214,-684 214,-648 268,-648 268,-684"/>
<text text-anchor="middle" x="241" y="-669" font-family="Times,serif" font-size="10.00">layer 2</text>
<text text-anchor="middle" x="241" y="-658" font-family="Times,serif" font-size="10.00">model 1</text>
</g>
<!-- F3
Esenboga&#45;&gt;layer 2
model 1 -->
<g id="edge12" class="edge">
<title>F3
Esenboga&#45;&gt;layer 2
model 1</title>
<path fill="none" stroke="#cde8ef" d="M97.38,-875.98C102.18,-833.26 114.2,-744.14 133,-720 134.25,-718.4 173.79,-699.21 204.66,-684.37"/>
<polygon fill="#3499cd" stroke="#cde8ef" points="206.42,-687.42 213.92,-679.93 203.39,-681.1 206.42,-687.42"/>
</g>
<!-- layer 5
model 2 -->
<g id="node18" class="node">
<title>layer 5
model 2</title>
<polygon fill="#cde8ef" stroke="#cde8ef" points="310,-468 256,-468 256,-432 310,-432 310,-468"/>
<text text-anchor="middle" x="283" y="-453" font-family="Times,serif" font-size="10.00">layer 5</text>
<text text-anchor="middle" x="283" y="-442" font-family="Times,serif" font-size="10.00">model 2</text>
</g>
<!-- F3
Esenboga&#45;&gt;layer 5
model 2 -->
<g id="edge24" class="edge">
<title>F3
Esenboga&#45;&gt;layer 5
model 2</title>
<path fill="none" stroke="#cde8ef" d="M81.64,-876.94C64.79,-846.82 38,-790.79 38,-739 38,-739 38,-739 38,-593 38,-498.07 177.38,-465.56 245.88,-455.31"/>
<polygon fill="#3499cd" stroke="#cde8ef" points="246.43,-458.77 255.84,-453.91 245.45,-451.84 246.43,-458.77"/>
</g>
<!-- layer 9
model 0 -->
<g id="node24" class="node">
<title>layer 9
model 0</title>
<polygon fill="#cde8ef" stroke="#cde8ef" points="338,-180 284,-180 284,-144 338,-144 338,-180"/>
<text text-anchor="middle" x="311" y="-165" font-family="Times,serif" font-size="10.00">layer 9</text>
<text text-anchor="middle" x="311" y="-154" font-family="Times,serif" font-size="10.00">model 0</text>
</g>
<!-- F3
Esenboga&#45;&gt;layer 9
model 0 -->
<g id="edge36" class="edge">
<title>F3
Esenboga&#45;&gt;layer 9
model 0</title>
<path fill="none" stroke="#cde8ef" d="M72.97,-878.65C44.9,-850.24 0,-795.89 0,-739 0,-739 0,-739 0,-305 0,-185.87 191.16,-166.26 273.74,-163.34"/>
<polygon fill="#3499cd" stroke="#cde8ef" points="274.05,-166.83 283.94,-163.05 273.85,-159.83 274.05,-166.83"/>
</g>
<!-- F4
Nallihan -->
<g id="node6" class="node">
<title>F4
Nallihan</title>
<ellipse fill="#ff9c34" stroke="#f89939" cx="334" cy="-816.04" rx="40.11" ry="24.08"/>
<text text-anchor="middle" x="334" y="-819.44" font-family="Times,serif" font-size="12.00" fill="white">F4</text>
<text text-anchor="middle" x="334" y="-806.44" font-family="Times,serif" font-size="12.00" fill="white">Nallihan</text>
</g>
<!-- layer 1
model 0 -->
<g id="node9" class="node">
<title>layer 1
model 0</title>
<polygon fill="#cde8ef" stroke="#cde8ef" points="268,-756 214,-756 214,-720 268,-720 268,-756"/>
<text text-anchor="middle" x="241" y="-741" font-family="Times,serif" font-size="10.00">layer 1</text>
<text text-anchor="middle" x="241" y="-730" font-family="Times,serif" font-size="10.00">model 0</text>
</g>
<!-- F4
Nallihan&#45;&gt;layer 1
model 0 -->
<g id="edge6" class="edge">
<title>F4
Nallihan&#45;&gt;layer 1
model 0</title>
<path fill="none" stroke="#cde8ef" d="M311.01,-796.24C298.54,-786.05 283,-773.34 269.74,-762.5"/>
<polygon fill="#3499cd" stroke="#cde8ef" points="271.78,-759.64 261.82,-756.02 267.35,-765.06 271.78,-759.64"/>
</g>
<!-- layer 1
model 1 -->
<g id="node10" class="node">
<title>layer 1
model 1</title>
<polygon fill="#cde8ef" stroke="#cde8ef" points="196,-756 142,-756 142,-720 196,-720 196,-756"/>
<text text-anchor="middle" x="169" y="-741" font-family="Times,serif" font-size="10.00">layer 1</text>
<text text-anchor="middle" x="169" y="-730" font-family="Times,serif" font-size="10.00">model 1</text>
</g>
<!-- F4
Nallihan&#45;&gt;layer 1
model 1 -->
<g id="edge8" class="edge">
<title>F4
Nallihan&#45;&gt;layer 1
model 1</title>
<path fill="none" stroke="#cde8ef" d="M302.67,-800.83C278.46,-789.82 243.89,-774.03 205.43,-756.18"/>
<polygon fill="#3499cd" stroke="#cde8ef" points="206.65,-752.89 196.11,-751.84 203.7,-759.23 206.65,-752.89"/>
</g>
<!-- layer 4
model 0 -->
<g id="node14" class="node">
<title>layer 4
model 0</title>
<polygon fill="#cde8ef" stroke="#cde8ef" points="382,-540 328,-540 328,-504 382,-504 382,-540"/>
<text text-anchor="middle" x="355" y="-525" font-family="Times,serif" font-size="10.00">layer 4</text>
<text text-anchor="middle" x="355" y="-514" font-family="Times,serif" font-size="10.00">model 0</text>
</g>
<!-- F4
Nallihan&#45;&gt;layer 4
model 0 -->
<g id="edge16" class="edge">
<title>F4
Nallihan&#45;&gt;layer 4
model 0</title>
<path fill="none" stroke="#cde8ef" d="M340.54,-792.25C343.37,-781.37 346.4,-768.11 348,-756 357.78,-682.03 357.1,-593.75 355.96,-550.14"/>
<polygon fill="#3499cd" stroke="#cde8ef" points="359.45,-549.94 355.66,-540.05 352.46,-550.15 359.45,-549.94"/>
</g>
<!-- layer 4
model 1 -->
<g id="node15" class="node">
<title>layer 4
model 1</title>
<polygon fill="#cde8ef" stroke="#cde8ef" points="310,-540 256,-540 256,-504 310,-504 310,-540"/>
<text text-anchor="middle" x="283" y="-525" font-family="Times,serif" font-size="10.00">layer 4</text>
<text text-anchor="middle" x="283" y="-514" font-family="Times,serif" font-size="10.00">model 1</text>
</g>
<!-- F4
Nallihan&#45;&gt;layer 4
model 1 -->
<g id="edge18" class="edge">
<title>F4
Nallihan&#45;&gt;layer 4
model 1</title>
<path fill="none" stroke="#cde8ef" d="M334.48,-791.76C334.77,-748.38 332.5,-652.64 310,-576 307.34,-566.93 303.13,-557.57 298.81,-549.28"/>
<polygon fill="#3499cd" stroke="#cde8ef" points="301.85,-547.55 293.98,-540.46 295.72,-550.91 301.85,-547.55"/>
</g>
<!-- layer 7
model 0 -->
<g id="node21" class="node">
<title>layer 7
model 0</title>
<polygon fill="#cde8ef" stroke="#cde8ef" points="338,-324 284,-324 284,-288 338,-288 338,-324"/>
<text text-anchor="middle" x="311" y="-309" font-family="Times,serif" font-size="10.00">layer 7</text>
<text text-anchor="middle" x="311" y="-298" font-family="Times,serif" font-size="10.00">model 0</text>
</g>
<!-- F4
Nallihan&#45;&gt;layer 7
model 0 -->
<g id="edge30" class="edge">
<title>F4
Nallihan&#45;&gt;layer 7
model 0</title>
<path fill="none" stroke="#cde8ef" d="M332.01,-791.77C327.48,-747.59 313.78,-649.43 277,-576 267.67,-557.38 254.09,-559.58 247,-540 230.66,-494.87 238.15,-479.18 247,-432 253.33,-398.25 259.03,-390.39 275,-360 279.92,-350.65 286.14,-340.94 292.03,-332.42"/>
<polygon fill="#3499cd" stroke="#cde8ef" points="295.03,-334.23 297.97,-324.05 289.33,-330.18 295.03,-334.23"/>
</g>
<!-- layer 7
model 1 -->
<g id="node22" class="node">
<title>layer 7
model 1</title>
<polygon fill="#cde8ef" stroke="#cde8ef" points="437,-324 383,-324 383,-288 437,-288 437,-324"/>
<text text-anchor="middle" x="410" y="-309" font-family="Times,serif" font-size="10.00">layer 7</text>
<text text-anchor="middle" x="410" y="-298" font-family="Times,serif" font-size="10.00">model 1</text>
</g>
<!-- F4
Nallihan&#45;&gt;layer 7
model 1 -->
<g id="edge32" class="edge">
<title>F4
Nallihan&#45;&gt;layer 7
model 1</title>
<path fill="none" stroke="#cde8ef" d="M352.79,-794.21C375.29,-767.02 410,-716.98 410,-667 410,-667 410,-667 410,-449 410,-409 410,-362.65 410,-334.08"/>
<polygon fill="#3499cd" stroke="#cde8ef" points="413.5,-334.05 410,-324.05 406.5,-334.05 413.5,-334.05"/>
</g>
<!-- layer 9
model 1 -->
<g id="node25" class="node">
<title>layer 9
model 1</title>
<polygon fill="#cde8ef" stroke="#cde8ef" points="410,-180 356,-180 356,-144 410,-144 410,-180"/>
<text text-anchor="middle" x="383" y="-165" font-family="Times,serif" font-size="10.00">layer 9</text>
<text text-anchor="middle" x="383" y="-154" font-family="Times,serif" font-size="10.00">model 1</text>
</g>
<!-- F4
Nallihan&#45;&gt;layer 9
model 1 -->
<g id="edge38" class="edge">
<title>F4
Nallihan&#45;&gt;layer 9
model 1</title>
<path fill="none" stroke="#cde8ef" d="M364.51,-800.03C434.38,-763.27 600,-661.53 600,-523 600,-523 600,-523 600,-305 600,-220.09 482.23,-183.22 420.21,-169.69"/>
<polygon fill="#3499cd" stroke="#cde8ef" points="420.55,-166.18 410.04,-167.57 419.12,-173.04 420.55,-166.18"/>
</g>
<!-- layer 0
model 0&#45;&gt;layer 1
model 0 -->
<g id="edge5" class="edge">
<title>layer 0
model 0&#45;&gt;layer 1
model 0</title>
<path fill="none" stroke="#cde8ef" d="M241,-797.79C241,-788.55 241,-776.96 241,-766.51"/>
<polygon fill="#3499cd" stroke="#cde8ef" points="244.5,-766.19 241,-756.19 237.5,-766.19 244.5,-766.19"/>
</g>
<!-- layer 0
model 1&#45;&gt;layer 1
model 1 -->
<g id="edge7" class="edge">
<title>layer 0
model 1&#45;&gt;layer 1
model 1</title>
<path fill="none" stroke="#cde8ef" d="M169,-797.79C169,-788.55 169,-776.96 169,-766.51"/>
<polygon fill="#3499cd" stroke="#cde8ef" points="172.5,-766.19 169,-756.19 165.5,-766.19 172.5,-766.19"/>
</g>
<!-- layer 1
model 0&#45;&gt;layer 2
model 1 -->
<g id="edge11" class="edge">
<title>layer 1
model 0&#45;&gt;layer 2
model 1</title>
<path fill="none" stroke="#cde8ef" d="M241,-719.7C241,-711.98 241,-702.71 241,-694.11"/>
<polygon fill="#3499cd" stroke="#cde8ef" points="244.5,-694.1 241,-684.1 237.5,-694.1 244.5,-694.1"/>
</g>
<!-- layer 1
model 1&#45;&gt;layer 2
model 0 -->
<g id="edge9" class="edge">
<title>layer 1
model 1&#45;&gt;layer 2
model 0</title>
<path fill="none" stroke="#cde8ef" d="M169,-719.7C169,-711.98 169,-702.71 169,-694.11"/>
<polygon fill="#3499cd" stroke="#cde8ef" points="172.5,-694.1 169,-684.1 165.5,-694.1 172.5,-694.1"/>
</g>
<!-- layer 3
model 0 -->
<g id="node13" class="node">
<title>layer 3
model 0</title>
<polygon fill="#cde8ef" stroke="#cde8ef" points="268,-612 214,-612 214,-576 268,-576 268,-612"/>
<text text-anchor="middle" x="241" y="-597" font-family="Times,serif" font-size="10.00">layer 3</text>
<text text-anchor="middle" x="241" y="-586" font-family="Times,serif" font-size="10.00">model 0</text>
</g>
<!-- layer 2
model 0&#45;&gt;layer 3
model 0 -->
<g id="edge13" class="edge">
<title>layer 2
model 0&#45;&gt;layer 3
model 0</title>
<path fill="none" stroke="#cde8ef" d="M186.8,-647.7C195.6,-639.14 206.38,-628.66 216,-619.3"/>
<polygon fill="#3499cd" stroke="#cde8ef" points="218.68,-621.58 223.41,-612.1 213.8,-616.57 218.68,-621.58"/>
</g>
<!-- layer 2
model 1&#45;&gt;layer 3
model 0 -->
<g id="edge14" class="edge">
<title>layer 2
model 1&#45;&gt;layer 3
model 0</title>
<path fill="none" stroke="#cde8ef" d="M241,-647.7C241,-639.98 241,-630.71 241,-622.11"/>
<polygon fill="#3499cd" stroke="#cde8ef" points="244.5,-622.1 241,-612.1 237.5,-622.1 244.5,-622.1"/>
</g>
<!-- layer 3
model 0&#45;&gt;layer 4
model 0 -->
<g id="edge15" class="edge">
<title>layer 3
model 0&#45;&gt;layer 4
model 0</title>
<path fill="none" stroke="#cde8ef" d="M268.02,-576.41C283.24,-567.06 302.45,-555.27 318.94,-545.14"/>
<polygon fill="#3499cd" stroke="#cde8ef" points="321.09,-547.93 327.78,-539.71 317.43,-541.96 321.09,-547.93"/>
</g>
<!-- layer 3
model 0&#45;&gt;layer 4
model 1 -->
<g id="edge17" class="edge">
<title>layer 3
model 0&#45;&gt;layer 4
model 1</title>
<path fill="none" stroke="#cde8ef" d="M251.38,-575.7C256.26,-567.56 262.19,-557.69 267.58,-548.7"/>
<polygon fill="#3499cd" stroke="#cde8ef" points="270.59,-550.48 272.74,-540.1 264.59,-546.88 270.59,-550.48"/>
</g>
<!-- layer 4
model 0&#45;&gt;layer 5
model 0 -->
<g id="edge19" class="edge">
<title>layer 4
model 0&#45;&gt;layer 5
model 0</title>
<path fill="none" stroke="#cde8ef" d="M382.14,-506.5C401.82,-495.98 428.62,-481.66 450.06,-470.2"/>
<polygon fill="#3499cd" stroke="#cde8ef" points="451.72,-473.29 458.89,-465.49 448.42,-467.11 451.72,-473.29"/>
</g>
<!-- layer 4
model 0&#45;&gt;layer 5
model 2 -->
<g id="edge23" class="edge">
<title>layer 4
model 0&#45;&gt;layer 5
model 2</title>
<path fill="none" stroke="#cde8ef" d="M337.2,-503.7C328.4,-495.14 317.62,-484.66 308,-475.3"/>
<polygon fill="#3499cd" stroke="#cde8ef" points="310.2,-472.57 300.59,-468.1 305.32,-477.58 310.2,-472.57"/>
</g>
<!-- layer 4
model 1&#45;&gt;layer 5
model 1 -->
<g id="edge21" class="edge">
<title>layer 4
model 1&#45;&gt;layer 5
model 1</title>
<path fill="none" stroke="#cde8ef" d="M300.8,-503.7C309.6,-495.14 320.38,-484.66 330,-475.3"/>
<polygon fill="#3499cd" stroke="#cde8ef" points="332.68,-477.58 337.41,-468.1 327.8,-472.57 332.68,-477.58"/>
</g>
<!-- layer 5
model 0&#45;&gt;layer 6
model 0 -->
<g id="edge25" class="edge">
<title>layer 5
model 0&#45;&gt;layer 6
model 0</title>
<path fill="none" stroke="#cde8ef" d="M486,-431.7C486,-423.98 486,-414.71 486,-406.11"/>
<polygon fill="#3499cd" stroke="#cde8ef" points="489.5,-406.1 486,-396.1 482.5,-406.1 489.5,-406.1"/>
</g>
<!-- layer 6
model 1 -->
<g id="node20" class="node">
<title>layer 6
model 1</title>
<polygon fill="#cde8ef" stroke="#cde8ef" points="338,-396 284,-396 284,-360 338,-360 338,-396"/>
<text text-anchor="middle" x="311" y="-381" font-family="Times,serif" font-size="10.00">layer 6</text>
<text text-anchor="middle" x="311" y="-370" font-family="Times,serif" font-size="10.00">model 1</text>
</g>
<!-- layer 5
model 1&#45;&gt;layer 6
model 1 -->
<g id="edge27" class="edge">
<title>layer 5
model 1&#45;&gt;layer 6
model 1</title>
<path fill="none" stroke="#cde8ef" d="M344.12,-431.7C339.01,-423.56 332.8,-413.69 327.16,-404.7"/>
<polygon fill="#3499cd" stroke="#cde8ef" points="330.04,-402.71 321.75,-396.1 324.11,-406.43 330.04,-402.71"/>
</g>
<!-- layer 5
model 2&#45;&gt;layer 6
model 1 -->
<g id="edge28" class="edge">
<title>layer 5
model 2&#45;&gt;layer 6
model 1</title>
<path fill="none" stroke="#cde8ef" d="M289.92,-431.7C293.07,-423.81 296.88,-414.3 300.38,-405.55"/>
<polygon fill="#3499cd" stroke="#cde8ef" points="303.69,-406.69 304.16,-396.1 297.19,-404.09 303.69,-406.69"/>
</g>
<!-- layer 6
model 0&#45;&gt;layer 7
model 1 -->
<g id="edge31" class="edge">
<title>layer 6
model 0&#45;&gt;layer 7
model 1</title>
<path fill="none" stroke="#cde8ef" d="M467.21,-359.7C457.83,-351.05 446.32,-340.45 436.09,-331.03"/>
<polygon fill="#3499cd" stroke="#cde8ef" points="438.3,-328.3 428.57,-324.1 433.55,-333.45 438.3,-328.3"/>
</g>
<!-- layer 6
model 1&#45;&gt;layer 7
model 0 -->
<g id="edge29" class="edge">
<title>layer 6
model 1&#45;&gt;layer 7
model 0</title>
<path fill="none" stroke="#cde8ef" d="M311,-359.7C311,-351.98 311,-342.71 311,-334.11"/>
<polygon fill="#3499cd" stroke="#cde8ef" points="314.5,-334.1 311,-324.1 307.5,-334.1 314.5,-334.1"/>
</g>
<!-- layer 8
model 0 -->
<g id="node23" class="node">
<title>layer 8
model 0</title>
<polygon fill="#cde8ef" stroke="#cde8ef" points="374,-252 320,-252 320,-216 374,-216 374,-252"/>
<text text-anchor="middle" x="347" y="-237" font-family="Times,serif" font-size="10.00">layer 8</text>
<text text-anchor="middle" x="347" y="-226" font-family="Times,serif" font-size="10.00">model 0</text>
</g>
<!-- layer 7
model 0&#45;&gt;layer 8
model 0 -->
<g id="edge33" class="edge">
<title>layer 7
model 0&#45;&gt;layer 8
model 0</title>
<path fill="none" stroke="#cde8ef" d="M319.9,-287.7C324,-279.73 328.95,-270.1 333.49,-261.26"/>
<polygon fill="#3499cd" stroke="#cde8ef" points="336.74,-262.6 338.2,-252.1 330.52,-259.4 336.74,-262.6"/>
</g>
<!-- layer 7
model 1&#45;&gt;layer 8
model 0 -->
<g id="edge34" class="edge">
<title>layer 7
model 1&#45;&gt;layer 8
model 0</title>
<path fill="none" stroke="#cde8ef" d="M394.43,-287.7C386.8,-279.22 377.48,-268.86 369.12,-259.58"/>
<polygon fill="#3499cd" stroke="#cde8ef" points="371.69,-257.2 362.39,-252.1 366.48,-261.88 371.69,-257.2"/>
</g>
<!-- layer 8
model 0&#45;&gt;layer 9
model 0 -->
<g id="edge35" class="edge">
<title>layer 8
model 0&#45;&gt;layer 9
model 0</title>
<path fill="none" stroke="#cde8ef" d="M338.1,-215.7C334,-207.73 329.05,-198.1 324.51,-189.26"/>
<polygon fill="#3499cd" stroke="#cde8ef" points="327.48,-187.4 319.8,-180.1 321.26,-190.6 327.48,-187.4"/>
</g>
<!-- layer 8
model 0&#45;&gt;layer 9
model 1 -->
<g id="edge37" class="edge">
<title>layer 8
model 0&#45;&gt;layer 9
model 1</title>
<path fill="none" stroke="#cde8ef" d="M355.9,-215.7C360,-207.73 364.95,-198.1 369.49,-189.26"/>
<polygon fill="#3499cd" stroke="#cde8ef" points="372.74,-190.6 374.2,-180.1 366.52,-187.4 372.74,-190.6"/>
</g>
<!-- layer 10
model 0 -->
<g id="node26" class="node">
<title>layer 10
model 0</title>
<polygon fill="#cde8ef" stroke="#cde8ef" points="374,-108 320,-108 320,-72 374,-72 374,-108"/>
<text text-anchor="middle" x="347" y="-93" font-family="Times,serif" font-size="10.00">layer 10</text>
<text text-anchor="middle" x="347" y="-82" font-family="Times,serif" font-size="10.00">model 0</text>
</g>
<!-- layer 9
model 0&#45;&gt;layer 10
model 0 -->
<g id="edge39" class="edge">
<title>layer 9
model 0&#45;&gt;layer 10
model 0</title>
<path fill="none" stroke="#cde8ef" d="M319.9,-143.7C324,-135.73 328.95,-126.1 333.49,-117.26"/>
<polygon fill="#3499cd" stroke="#cde8ef" points="336.74,-118.6 338.2,-108.1 330.52,-115.4 336.74,-118.6"/>
</g>
<!-- layer 9
model 1&#45;&gt;layer 10
model 0 -->
<g id="edge40" class="edge">
<title>layer 9
model 1&#45;&gt;layer 10
model 0</title>
<path fill="none" stroke="#cde8ef" d="M374.1,-143.7C370,-135.73 365.05,-126.1 360.51,-117.26"/>
<polygon fill="#3499cd" stroke="#cde8ef" points="363.48,-115.4 355.8,-108.1 357.26,-118.6 363.48,-115.4"/>
</g>
<!-- layer 10
model 0&#45;&gt;OUTPUT -->
<g id="edge41" class="edge">
<title>layer 10
model 0&#45;&gt;OUTPUT</title>
<path fill="none" stroke="#cde8ef" d="M347,-71.7C347,-63.98 347,-54.71 347,-46.11"/>
<polygon fill="#3499cd" stroke="#cde8ef" points="350.5,-46.1 347,-36.1 343.5,-46.1 350.5,-46.1"/>
</g>
</g>
</svg>
